<svg width="24" height="25" viewBox="0 0 24 25" fill="none" xmlns="http://www.w3.org/2000/svg">
<g clip-path="url(#clip0_170919_200)">
<path fill-rule="evenodd" clip-rule="evenodd" d="M23 3.34595C23.5523 3.34595 24 3.79366 24 4.34595V10.3459C24 10.8982 23.5523 11.3459 23 11.3459H17C16.4477 11.3459 16 10.8982 16 10.3459C16 9.79366 16.4477 9.34595 17 9.34595H22V4.34595C22 3.79366 22.4477 3.34595 23 3.34595Z" fill="white"/>
<path fill-rule="evenodd" clip-rule="evenodd" d="M3.01877e-06 14.3459C3.01877e-06 13.7937 0.447718 13.3459 1 13.3459H7C7.55229 13.3459 8 13.7937 8 14.3459C8 14.8982 7.55229 15.3459 7 15.3459H2V20.3459C2 20.8982 1.55229 21.3459 1 21.3459C0.447718 21.3459 3.01877e-06 20.8982 3.01877e-06 20.3459V14.3459Z" fill="white"/>
<path fill-rule="evenodd" clip-rule="evenodd" d="M14.2173 4.66098C12.9192 4.28548 11.547 4.24496 10.229 4.54318C8.91091 4.84141 7.68987 5.46867 6.6798 6.36644C5.66973 7.2642 4.90353 8.40321 4.45272 9.67718C4.26848 10.1978 3.69705 10.4705 3.17641 10.2863C2.65576 10.1021 2.38305 9.53063 2.56729 9.00998C3.13081 7.41752 4.08855 5.99377 5.35114 4.87156C6.61373 3.74936 8.14003 2.96528 9.78761 2.59249C11.4352 2.21971 13.1503 2.27036 14.7731 2.73973C16.3906 3.20761 17.8637 4.07635 19.0559 5.26527L23.6848 9.61483C24.0873 9.99302 24.1069 10.6259 23.7288 11.0284C23.3506 11.4308 22.7177 11.4505 22.3152 11.0723L17.6752 6.71233C17.6676 6.70518 17.6601 6.6979 17.6527 6.69051C16.6974 5.7347 15.5155 5.03647 14.2173 4.66098ZM0.27125 13.6588C0.649442 13.2563 1.2823 13.2366 1.68478 13.6148L6.32478 17.9748C6.3324 17.982 6.3399 17.9893 6.34729 17.9967C7.30262 18.9525 8.48451 19.6507 9.78267 20.0262C11.0808 20.4017 12.453 20.4422 13.771 20.144C15.0891 19.8458 16.3101 19.2185 17.3202 18.3207C18.3303 17.423 19.0965 16.284 19.5473 15.01C19.7315 14.4893 20.303 14.2166 20.8236 14.4009C21.3442 14.5851 21.617 15.1565 21.4327 15.6772C20.8692 17.2696 19.9115 18.6934 18.6489 19.8156C17.3863 20.9378 15.86 21.7219 14.2124 22.0947C12.5648 22.4675 10.8497 22.4168 9.22695 21.9474C7.6094 21.4796 6.13627 20.6108 4.94411 19.4219L0.315226 15.0723C-0.0872528 14.6941 -0.106942 14.0613 0.27125 13.6588Z" fill="white"/>
</g>
<defs>
<clipPath id="clip0_170919_200">
<rect width="24" height="24" fill="white" transform="translate(0 0.345947)"/>
</clipPath>
</defs>
</svg>
