<svg width="25" height="25" viewBox="0 0 25 25" fill="none" xmlns="http://www.w3.org/2000/svg">
<g clip-path="url(#clip0_5_282)">
<path fill-rule="evenodd" clip-rule="evenodd" d="M2.82788 12.8192C2.93717 13.0081 3.08206 13.2488 3.26155 13.5267C3.72257 14.2405 4.4053 15.1898 5.29167 16.1353C7.08265 18.0457 9.58664 19.8192 12.6871 19.8192C15.7876 19.8192 18.2916 18.0457 20.0826 16.1353C20.969 15.1898 21.6517 14.2405 22.1127 13.5267C22.2922 13.2488 22.4371 13.0081 22.5464 12.8192C22.4371 12.6303 22.2922 12.3897 22.1127 12.1117C21.6517 11.3979 20.969 10.4486 20.0826 9.50316C18.2916 7.59277 15.7876 5.81921 12.6871 5.81921C9.58664 5.81921 7.08265 7.59277 5.29167 9.50316C4.4053 10.4486 3.72257 11.3979 3.26155 12.1117C3.08206 12.3897 2.93717 12.6303 2.82788 12.8192ZM23.6871 12.8192C24.5816 12.372 24.5814 12.3717 24.5812 12.3713L24.5796 12.3681L24.5761 12.3613L24.5648 12.339C24.5553 12.3205 24.5418 12.2945 24.5244 12.2617C24.4896 12.1959 24.4391 12.1024 24.3732 11.9852C24.2413 11.7509 24.0473 11.4207 23.7928 11.0267C23.2851 10.2405 22.5303 9.18981 21.5417 8.13527C19.5827 6.04565 16.5866 3.81921 12.6871 3.81921C8.78763 3.81921 5.79161 6.04565 3.8326 8.13527C2.84397 9.18981 2.0892 10.2405 1.58147 11.0267C1.32698 11.4207 1.13293 11.7509 1.00111 11.9852C0.935157 12.1024 0.884674 12.1959 0.849887 12.2617C0.832491 12.2945 0.819009 12.3205 0.809472 12.339L0.798124 12.3613L0.794673 12.3681L0.793504 12.3704C0.79332 12.3708 0.792707 12.372 1.68713 12.8192L0.792707 12.372C0.651943 12.6535 0.651943 12.9849 0.792707 13.2664L1.68713 12.8192C0.792707 13.2664 0.792523 13.2661 0.792707 13.2664L0.794673 13.2703L0.798124 13.2772L0.809472 13.2994C0.819009 13.3179 0.832491 13.3439 0.849887 13.3768C0.884674 13.4425 0.935157 13.536 1.00111 13.6532C1.13293 13.8876 1.32698 14.2177 1.58147 14.6117C2.0892 15.3979 2.84397 16.4486 3.8326 17.5032C5.79161 19.5928 8.78763 21.8192 12.6871 21.8192C16.5866 21.8192 19.5827 19.5928 21.5417 17.5032C22.5303 16.4486 23.2851 15.3979 23.7928 14.6117C24.0473 14.2177 24.2413 13.8876 24.3732 13.6532C24.4391 13.536 24.4896 13.4425 24.5244 13.3768C24.5418 13.3439 24.5553 13.3179 24.5648 13.2994L24.5761 13.2772L24.5796 13.2703L24.5808 13.268C24.5809 13.2677 24.5816 13.2664 23.6871 12.8192ZM23.6871 12.8192L24.5816 13.2664C24.7223 12.9849 24.722 12.6528 24.5812 12.3713L23.6871 12.8192Z" fill="white"/>
<path fill-rule="evenodd" clip-rule="evenodd" d="M12.6871 10.8192C11.5826 10.8192 10.6871 11.7146 10.6871 12.8192C10.6871 13.9238 11.5826 14.8192 12.6871 14.8192C13.7917 14.8192 14.6871 13.9238 14.6871 12.8192C14.6871 11.7146 13.7917 10.8192 12.6871 10.8192ZM8.68713 12.8192C8.68713 10.6101 10.478 8.81921 12.6871 8.81921C14.8963 8.81921 16.6871 10.6101 16.6871 12.8192C16.6871 15.0284 14.8963 16.8192 12.6871 16.8192C10.478 16.8192 8.68713 15.0284 8.68713 12.8192Z" fill="white"/>
</g>
<defs>
<clipPath id="clip0_5_282">
<rect width="24" height="24" fill="white" transform="translate(0.687134 0.819214)"/>
</clipPath>
</defs>
</svg>
