<svg width="25" height="25" viewBox="0 0 25 25" fill="none" xmlns="http://www.w3.org/2000/svg">
<path fill-rule="evenodd" clip-rule="evenodd" d="M6.39423 9.11217C6.78475 9.50269 6.78475 10.1359 6.39423 10.5264L4.10133 12.8193L6.39423 15.1122C6.78475 15.5027 6.78475 16.1359 6.39423 16.5264C6.0037 16.9169 5.37054 16.9169 4.98001 16.5264L1.98001 13.5264C1.58949 13.1359 1.58949 12.5027 1.98001 12.1122L4.98001 9.11217C5.37054 8.72164 6.0037 8.72164 6.39423 9.11217Z" fill="white"/>
<path fill-rule="evenodd" clip-rule="evenodd" d="M11.98 2.11217C12.3705 1.72164 13.0037 1.72164 13.3942 2.11217L16.3942 5.11217C16.7847 5.50269 16.7847 6.13586 16.3942 6.52638C16.0037 6.91691 15.3705 6.91691 14.98 6.52638L12.6871 4.23349L10.3942 6.52638C10.0037 6.91691 9.37054 6.91691 8.98001 6.52638C8.58949 6.13586 8.58949 5.50269 8.98001 5.11217L11.98 2.11217Z" fill="white"/>
<path fill-rule="evenodd" clip-rule="evenodd" d="M8.98001 19.1122C9.37054 18.7216 10.0037 18.7216 10.3942 19.1122L12.6871 21.4051L14.98 19.1122C15.3705 18.7216 16.0037 18.7216 16.3942 19.1122C16.7847 19.5027 16.7847 20.1359 16.3942 20.5264L13.3942 23.5264C13.0037 23.9169 12.3705 23.9169 11.98 23.5264L8.98001 20.5264C8.58949 20.1359 8.58949 19.5027 8.98001 19.1122Z" fill="white"/>
<path fill-rule="evenodd" clip-rule="evenodd" d="M18.98 9.11217C19.3705 8.72164 20.0037 8.72164 20.3942 9.11217L23.3942 12.1122C23.7847 12.5027 23.7847 13.1359 23.3942 13.5264L20.3942 16.5264C20.0037 16.9169 19.3705 16.9169 18.98 16.5264C18.5895 16.1359 18.5895 15.5027 18.98 15.1122L21.2729 12.8193L18.98 10.5264C18.5895 10.1359 18.5895 9.50269 18.98 9.11217Z" fill="white"/>
<path fill-rule="evenodd" clip-rule="evenodd" d="M1.68712 12.8193C1.68712 12.267 2.13483 11.8193 2.68712 11.8193H22.6871C23.2394 11.8193 23.6871 12.267 23.6871 12.8193C23.6871 13.3716 23.2394 13.8193 22.6871 13.8193H2.68712C2.13483 13.8193 1.68712 13.3716 1.68712 12.8193Z" fill="white"/>
<path fill-rule="evenodd" clip-rule="evenodd" d="M12.6871 1.81927C13.2394 1.81927 13.6871 2.26699 13.6871 2.81927V22.8193C13.6871 23.3716 13.2394 23.8193 12.6871 23.8193C12.1348 23.8193 11.6871 23.3716 11.6871 22.8193V2.81927C11.6871 2.26699 12.1348 1.81927 12.6871 1.81927Z" fill="white"/>
</svg>
