<?xml version="1.0" standalone="no"?>
<!DOCTYPE svg PUBLIC "-//W3C//DTD SVG 20010904//EN"
 "http://www.w3.org/TR/2001/REC-SVG-20010904/DTD/svg10.dtd">
<svg version="1.0" xmlns="http://www.w3.org/2000/svg"
 width="260.000000pt" height="260.000000pt" viewBox="0 0 260.000000 260.000000"
 preserveAspectRatio="xMidYMid meet">
<metadata>
Created by potrace 1.14, written by Peter Selinger 2001-2017
</metadata>
<g transform="translate(0.000000,260.000000) scale(0.100000,-0.100000)"
fill="#000000" stroke="none">
<path d="M0 1300 l0 -1300 1300 0 1300 0 0 1300 0 1300 -1300 0 -1300 0 0
-1300z m2388 -1 l2 -624 -337 -194 c-186 -107 -431 -248 -545 -313 l-206 -119
-69 39 c-37 21 -160 92 -273 157 -214 124 -559 322 -670 385 l-65 38 -3 629
-2 629 97 55 c99 56 455 261 703 404 74 43 168 97 208 120 l74 42 541 -312
542 -312 3 -624z"/>
<path d="M1290 2289 c0 -5 5 -7 10 -4 6 3 10 8 10 11 0 2 -4 4 -10 4 -5 0 -10
-5 -10 -11z"/>
<path d="M1075 2251 c-11 -11 -472 -275 -495 -284 -20 -7 48 -9 276 -7 105 1
228 -2 273 -5 l81 -8 0 -72 0 -73 -92 -7 c-51 -4 -189 -5 -306 -3 -116 2 -212
2 -212 1 0 -1 31 -20 70 -43 38 -22 71 -44 74 -48 3 -5 -12 -36 -32 -69 l-38
-61 -69 39 c-39 21 -73 39 -77 39 -4 0 34 -71 84 -157 50 -86 117 -204 149
-262 l58 -104 -62 -38 c-34 -20 -65 -35 -69 -33 -12 8 -94 137 -134 211 -64
120 -155 278 -175 303 -18 25 -19 22 -18 -270 0 -267 1 -293 15 -275 8 11 48
72 87 135 52 84 73 110 75 95 3 -11 13 -32 23 -47 11 -14 19 -30 19 -34 0 -4
9 -17 20 -29 22 -23 24 -16 -45 -138 l-38 -69 34 18 c19 9 84 47 144 84 61 37
124 74 140 82 17 8 69 36 116 61 82 45 86 46 82 23 -7 -34 23 -84 53 -92 24
-6 22 -9 -38 -47 -34 -22 -85 -55 -113 -72 -27 -18 -106 -62 -175 -100 -185
-100 -181 -95 -70 -95 52 0 100 -4 106 -8 7 -4 28 -35 48 -69 20 -35 41 -63
46 -63 15 0 12 12 -11 45 -25 37 -101 186 -97 190 12 11 117 65 125 65 10 0
90 -131 209 -340 26 -47 60 -104 75 -127 l26 -43 7 88 7 87 69 0 69 0 6 -50
c3 -27 6 -68 8 -90 2 -39 3 -38 76 90 75 131 192 331 217 372 l14 22 62 -35
c35 -20 64 -37 66 -38 4 -5 -57 -131 -95 -193 -167 -276 -230 -391 -197 -361
11 9 129 80 264 157 l245 141 -95 0 c-52 0 -125 3 -163 7 -61 5 -66 8 -53 22
7 9 26 40 41 69 31 59 35 61 155 64 l84 3 -104 58 c-102 56 -134 74 -320 186
-90 55 -90 55 -63 66 34 15 57 55 51 89 -5 26 -2 25 111 -35 64 -34 140 -75
169 -91 28 -17 52 -28 52 -25 0 3 -25 19 -55 36 -30 17 -55 37 -55 44 0 6 65
125 144 262 79 138 143 251 141 253 -2 2 -37 -15 -77 -37 l-75 -41 -11 22 c-6
13 -22 42 -36 64 l-26 42 75 47 c41 25 75 47 75 48 0 1 -140 2 -310 2 l-310 0
0 -76 c0 -42 -3 -97 -6 -122 l-6 -45 -34 14 c-27 11 -39 12 -61 2 -15 -7 -31
-16 -34 -21 -11 -16 -19 129 -19 367 l0 239 -53 -87 -52 -88 -87 -1 -87 -2 75
143 c41 78 74 142 72 142 -2 0 -8 -4 -13 -9z m-86 -493 c-19 -37 -231 -401
-244 -421 -11 -16 -17 -11 -54 48 -22 36 -41 73 -41 81 0 22 65 146 123 235
l52 79 88 0 88 0 -12 -22z m837 -50 c26 -40 67 -111 90 -157 40 -80 42 -86 28
-110 -9 -14 -28 -48 -43 -74 l-28 -49 -20 29 c-46 66 -243 410 -243 424 0 5
38 9 85 9 l84 0 47 -72z m-793 -168 c60 -33 114 -60 120 -60 7 0 43 20 80 45
l68 46 67 -46 c38 -25 75 -45 83 -45 7 0 41 16 73 36 62 37 152 84 161 84 3 0
5 -4 5 -10 0 -5 14 -33 31 -62 36 -61 45 -50 -100 -135 l-94 -56 6 -87 6 -87
-77 -39 -77 -39 -2 -115 c-4 -168 0 -160 -82 -160 -83 0 -81 -5 -81 160 l0
115 -72 35 -73 35 -5 94 -5 94 -108 64 -107 64 32 64 c18 35 35 64 38 64 3 1
54 -26 113 -59z m529 -746 c11 -11 -67 -136 -90 -145 -27 -10 -319 -11 -344
-1 -20 8 -99 137 -90 146 7 8 517 8 524 0z"/>
<path d="M1544 2197 c73 -134 116 -215 116 -218 0 -2 -39 -3 -87 -2 l-88 1
-52 89 -53 88 0 -100 0 -100 277 2 c153 2 300 3 327 3 l49 0 -54 29 c-30 16
-147 83 -262 149 l-207 120 34 -61z"/>
<path d="M1381 1824 c0 -11 3 -14 6 -6 3 7 2 16 -1 19 -3 4 -6 -2 -5 -13z"/>
<path d="M2197 1528 c-24 -40 -66 -111 -92 -158 -112 -200 -140 -247 -167
-281 -15 -20 -28 -41 -28 -45 1 -9 162 -105 167 -100 2 2 -19 43 -47 91 -48
87 -49 90 -31 110 27 31 71 112 64 119 -3 3 -4 6 -1 6 5 0 115 -169 182 -277
1 -1 1 136 1 303 0 167 -1 304 -1 304 -1 0 -22 -33 -47 -72z"/>
<path d="M893 654 c-6 -3 -80 -8 -164 -12 l-153 -7 249 -144 c138 -79 253
-149 257 -155 5 -7 8 -7 8 -1 0 6 -19 44 -43 85 -88 154 -139 240 -140 239 -1
0 -7 -3 -14 -5z"/>
</g>
</svg>
