<svg width="17" height="16" viewBox="0 0 17 16" fill="none" xmlns="http://www.w3.org/2000/svg">
<path d="M5.70711 1.11211C5.31658 0.721585 4.68342 0.721585 4.29289 1.11211L0.292893 5.11211C-0.0976311 5.50263 -0.0976311 6.1358 0.292893 6.52632C0.683417 6.91685 1.31658 6.91685 1.70711 6.52632L4 4.23343V14.7643C4 15.3166 4.44772 15.7643 5 15.7643C5.55228 15.7643 6 15.3166 6 14.7643V4.23343L8.29289 6.52632C8.68342 6.91685 9.31658 6.91685 9.70711 6.52632C10.0976 6.1358 10.0976 5.50263 9.70711 5.11211L5.70711 1.11211Z" fill="white"/>
<path d="M11.2929 15.6522C11.6834 16.0427 12.3166 16.0427 12.7071 15.6522L16.7071 11.6522C17.0976 11.2617 17.0976 10.6285 16.7071 10.238C16.3166 9.84744 15.6834 9.84744 15.2929 10.238L13 12.5309L13 2C13 1.44771 12.5523 1 12 1C11.4477 1 11 1.44771 11 2L11 12.5309L8.70711 10.238C8.31658 9.84744 7.68342 9.84744 7.29289 10.238C6.90237 10.6285 6.90237 11.2617 7.29289 11.6522L11.2929 15.6522Z" fill="white"/>
</svg>
